<?xml version="1.0" encoding="utf-8"?>
<!-- Generator: Adobe Illustrator 27.8.1, SVG Export Plug-In . SVG Version: 6.00 Build 0)  -->
<svg version="1.1" id="РЎР»РѕР№_1" xmlns="http://www.w3.org/2000/svg" xmlns:xlink="http://www.w3.org/1999/xlink" x="0px" y="0px"
	 viewBox="0 0 595.3 595.3" style="enable-background:new 0 0 595.3 595.3;" xml:space="preserve">
<style type="text/css">
	.st0{fill:#5A4034;stroke:#FFFFFF;stroke-width:22;stroke-miterlimit:10;}
	.st1{fill:#ECD03C;stroke:#FFFFFF;stroke-width:22;stroke-miterlimit:10;}
	.st2{fill:#F9EAC3;stroke:#FFFFFF;stroke-width:22;stroke-miterlimit:10;}
	.st3{fill:#FAD904;stroke:#FFFFFF;stroke-width:22;stroke-miterlimit:10;}
	.st4{fill:#FEFEFD;stroke:#FFFFFF;stroke-width:22;stroke-miterlimit:10;}
	.st5{fill:#ED9BB1;stroke:#FFFFFF;stroke-width:22;stroke-miterlimit:10;}
	.st6{fill:#EC9414;stroke:#FFFFFF;stroke-width:22;stroke-miterlimit:10;}
	.st7{fill:#5A4034;}
	.st8{fill:#ECD03C;}
	.st9{fill:#F9EAC3;}
	.st10{fill:#FAD904;}
	.st11{fill:#FEFEFD;}
	.st12{fill:#ED9BB1;}
	.st13{fill:#EC9414;}
</style>
<g>
	<g>
		<path class="st0" d="M364,573.5c-0.8,1.4-1.3,3.4-3.5,3c-2.7-0.5-6.3,1.8-8-2.3c-1.1-3.5,0-6.9,0.4-10.4c0.9-8.3,0.6-16.6,0.7-25
			c-1.2,0.4-1.2,1.2-1.5,1.9c-1.5,3.3-3.4,6.5-5.8,9.3c-12.8,14.5-28.3,21.4-47.7,16.6c-10-2.4-17.8-8-21.1-18.4
			c-1.4-4.5-1.7-9-1.3-13.7c0.2-2.4-0.3-4.5-1.6-6.5c-2.8-4.4-4.5-9.3-5.4-14.5c-0.3-1.6,0-3.4-0.8-5c-1.4,0.6-2.2,1.8-3.2,2.7
			c-9.3,9.1-20.4,12.3-33.1,9.6c-10.1-2.1-17.7-7.6-22.6-16.8c-1.3-2.4-1.5-2.3-2.9,0c-3.1,5.3-6.7,10.1-12,13.4
			c-1.1,0.7-1.3,1.5-1,2.8c0.7,3.5,0.6,7.1,0,10.7c-2.3,12.9-12.1,21.8-24.3,21.2c-9-0.4-17.4-3.2-24.5-9.1c-2.4-2-4.6-4.2-6.9-6.4
			c0,0,0,0,0,0c-0.7-2.7-2.9-4.6-4.1-6.9c-1.5-2.9-3.1-5.7-4.9-9.2c-1,7.1-1.6,13.5-2.1,20c-0.7,9.7-0.3,19.2,3.1,28.4
			c0.6,1.7,0.8,3.5,0.2,5.2c-1.8,4-5.4,2.3-8.3,2.4c-2.2,0.1-2.9-2.2-3.5-3.9c-3.4-10-4.1-20.4-3.8-30.8c0.5-17,2.5-33.8,6.4-50.4
			c0.4-1.9,0.8-3.8,1.6-5.5c0.7-1.5,0.2-2.1-0.9-2.9c-10-7.6-14.9-18.2-17.1-30.2c-2.2-12.6,0.7-24.7,4.8-36.6
			c4.4-12.8,11-24.6,19.3-35.3c1.3-1.7,1.3-2.5-0.4-3.9c-8.9-7.4-18.1-14.6-25.2-23.9c-9.9-13-16.2-27.8-21-43.2
			c-6-19-6.8-38.6-5-58.3c1.3-15,4.1-29.7,8.8-44c5.2-15.8,13.3-30.3,22.6-44c1.3-1.8,1.1-2.8-0.3-4.4c-17-20-24.1-43-20.2-69.1
			c2.8-18.5,11-34.3,25.6-46.4c10.2-8.5,22.1-13.4,34.9-16.3c32.3-7.2,59.6,1.9,82.3,25.6c7.6,7.9,13.1,17.2,16.6,27.6
			c0.5,1.6,1.2,2.1,2.8,1.9c43.1-4.3,84.9,1.3,125.4,16.5c16.3,6.1,31.6,14.6,46.2,24c1.4,0.9,2.1,0.9,3.2-0.5
			c12.7-15.8,29.3-24.1,49.5-25.7c14.8-1.2,29.5-0.4,43.2,5.6c27.5,12,44.6,32.5,48.2,62.9c2.1,17.7,0.9,35.3-6.8,51.6
			c-10.7,22.5-28.5,37-52.7,43.4c-2.6,0.7-3.4,1.6-2.9,4.2c1.7,9.3,2.3,18.6,2.5,28c0.2,6.2,0,12.5-0.7,18.7
			c-2.1,20-5.7,39.5-14.8,57.9c-16.3,33-43.2,52.8-77.2,64.2c-1.9,0.6-3.9,1.4-5.8,1.9c-1.5,0.4-1.7,1.2-1.4,2.6
			c1.6,8.3,2,16.8,1.2,25.2c-1.1,12.1-2.7,24.1-8.4,35.1c-2.6,5.1-5.5,10-8.2,15c-2.7,5-3.5,10.5-4,16c-1.1,13.4-2.1,26.7-3.2,40.1
			c-0.1,1-0.2,2-0.4,3.1c-0.5,3.3-1.7,4.3-5,4.3c-2.8,0-5.8,0.6-6.9-3.1c0-1.2-0.1-2.4,0-3.6c0.8-8.8,1.7-17.6,2.4-26.5
			c0.4-5.5,0.6-11,1-16.8c-2.6,0.9-4.2,2.6-6.2,3.5c-2.2,1-3.1,2.6-3,5.1C366.5,548,365.8,560.8,364,573.5z M307.6,525.8
			L307.6,525.8c-1.3-2.5-3.7-3.9-5.5-5.9c-0.5-0.6-1.1-0.1-1.6,0.2c-5.1,3.9-9.4,8.4-11.2,14.8c-1.7,6.1,0.1,11.8,5.1,15.7
			c3,2.4,6.5,3.5,10.2,4.4c11.7,2.9,29.3-6,33.9-17c0.9-2.1-0.6-2.1-1.8-2.3C326.5,534.2,316.5,531.5,307.6,525.8z M291.6,453.8
			c3.8,3.9,3.9,6.7,0.2,10.7c-1.4,1.5-2.8,3-3.9,4.7c-8.2,14.3-10.1,29.4-5.3,45.3c1,3.3,2.1,3.6,4.7,1.2c2.5-2.3,4.8-4.8,7.4-7.1
			c1.2-1.1,1.6-2.1,1-3.7c-2.6-7.1-3.2-14.3,0.5-21.3c0.1-0.2,0-0.5,0.1-0.8c0.1-0.1,0.1-0.2,0-0.3c1.2-2.3,2.4-4.5,3.6-6.8
			c0,0,0,0,0,0c0.2-0.2,0.4-0.3,0.6-0.5c5.7-10.3,15-14.5,26.3-15.6c5.4-0.5,10.7,0.1,16.1-0.9c5-0.9,6.3-2.6,5.3-7.6
			c-2.7-13.4-8.4-25.5-15.7-37c-9.8-15.4-24.3-24.8-40.4-32.2c-20.1-9.2-41.4-11.7-63.2-10.7c-15.8,0.7-30.7,4.9-44.6,12.6
			c-10.4,5.7-19.2,13.2-26,23c-2,3-1.9,3.6,1.3,5.3c11.7,6.3,19,16.2,22.9,28.6c4,13,0.2,25.1-5.7,36.7c-0.6,1.1-1,2.1-0.6,3.4
			c1.5,4.9,3,9.8,5.6,14.2c1.6,2.7,3.2,5.4,4.6,8.2c1.6,3.3,2.3,3.5,4.9,1c0.5-0.5,1.1-1.1,1.6-1.7c9.3-12.9,12.3-26.9,8.1-42.4
			c-1.1-4.2-3.8-7.6-5.6-11.4c-1.5-3.2-0.8-6,1.9-7.9c2.4-1.8,5.5-1.5,8,0.6c1.5,1.3,2.6,3,3.5,4.7c0.9,1.8,1.8,1.8,3.3,0.6
			c8-6.3,17.1-9.2,27.3-9.1c16,0.2,28.2,7,36.5,20.6c2.1,3.5,2.5,3.5,5,0.5c0.7-0.8,1.5-1.7,2.2-2.5
			C285.3,453.7,288,452.3,291.6,453.8L291.6,453.8z M253.4,350.8c0.9-0.5,1.8-1,2.6-1.5c4.8-3.1,9.9-5.6,15.3-7.5
			c4-1.5,7.6,0.1,8.7,3.4c1.2,3.5-0.5,6.5-4.5,8.2c-1.8,0.8-3.8,0.9-5.2,2.4c-3.8,1.3-6.8,3.8-10.9,6c13.7,1.8,26.1,5,37.8,10.4
			c17.5,8,32.9,18.6,44,34.8c4,5.8,7.2,12,10.3,18.2c1.3,2.6,3.1,3.8,6,3.9c9.7,0.5,19.3-0.2,28.8-1.7c23.2-3.7,44.4-12.5,63.3-26.5
			c17.7-13.1,28.4-31.4,36-51.5c6-15.8,7.3-32.5,8.2-49.3c0.4-7.6-0.3-15.1-0.9-22.7c-0.6-8-1.6-16-2.7-24
			c-1.6-10.6-4.7-20.8-8.1-31c-8.1-24.6-20.2-46.9-38.4-65.7c-19.5-20.2-43-34.5-68.7-45.3c-25.1-10.6-51.6-15.6-78.6-17.8
			c-11.6-1-23.1-1-34.7-0.1c-14.9,1.1-29.5,3.4-43.8,7.7c-20.4,6-39.5,14.8-56.9,27.2c-31,22.1-52.9,50.8-64.6,87.2
			c-4.4,13.8-6.5,28.1-7.2,42.5c-0.9,18.6,0.2,37,7.1,54.6c3.7,9.3,7,18.7,12.6,27c6.6,9.8,15.2,17.7,24.2,25.2
			c7.6,6.3,16.1,11.2,24.8,15.6c3.8,2,7.4,2.1,11.4-0.6c11.1-7.7,23.2-13.3,36.4-16.2c10.1-2.2,20.2-3.9,30.6-3.3
			c0.1-1-0.5-1.6-0.9-2.2c-2.8-4.9-6.8-8.7-10.5-12.8c-4.9-5.2-3.3-10.4,3.6-12c2.5,0.3,4.3,1.7,6,3.5c2.3,2.5,4.2,5.4,6.7,7.6
			c1.1,1.7,2.3,3.3,3.4,5.1c2.8,4.5,3.3,4.6,7.8,1.8C252.9,351.3,253.1,351,253.4,350.8z M553.5,164.2c-0.1-1-0.2-1.6-0.3-2.2
			c-4.9-25.9-21.4-41.6-45.1-50.3c-11.3-4.1-23.4-4.2-35.4-2.6c-14.8,2-27.3,8.2-36.9,19.8c-2.1,2.5-2,3,0.7,5.1
			c18.6,14.8,33.4,32.8,44.4,53.8c1.5,2.8,2,2.9,4,0.4c13.2-16.6,30.4-25,51.5-25.5c5.2-0.1,10.2,0.5,15.2,1.8
			C552.4,164.8,553.5,165.5,553.5,164.2z M106,73.8c9-2.3,17.3-1.6,25.5,0.9c15.5,4.7,28.4,13.1,37.7,26.5c3.7,5.4,3.5,5.5,9.4,2.5
			c0.1,0,0.1-0.1,0.2-0.1c16.3-8.4,33.5-14.2,51.4-18.1c5.4-1.2,5.7-1.5,3.3-6.5c-9.3-19.7-24.7-33-45.3-39
			c-25.8-7.5-49.4-1.3-69.9,15.9C112.9,60.7,109.1,66.8,106,73.8z M395.5,458c0-6.2-0.2-11.3-1-16.4c-0.3-2-1.2-2.9-3.5-2.5
			c-7,1.3-14,2.1-21.1,2.1c-1.6,0-2,0.3-1.7,2c1.7,7.7-0.2,14.5-6,20.1c-3.6,3.5-8,5.4-12.7,6.7c-6.6,1.8-13.5,1.9-20.3,2.1
			c-6.7,0.2-12.8,2-17.1,7.6c-10.2,13.4-4.3,33.8,11.7,39.9c11.9,4.5,24.1,4.5,36-0.1c8.9-3.5,17-8.5,22.4-16.8
			C391.3,488.9,396,473.7,395.5,458z M535,175c-14.8,0.7-28.9,6.4-39.6,19.6c-4.7,5.9-6,12.1-3.5,19.1c3.7,10.3,6.9,20.7,9.2,31.4
			c0.7,3.2,0.9,3.3,4.1,2.5c11.7-2.9,21.5-9,30.1-17.5c12.6-12.6,18.2-28.1,19.1-45.6c0.2-5-1.3-7-6.1-8.2
			C544.4,175.4,540.6,175.2,535,175z M146.7,478.8c0.3,0,0.7,0,1,0c8.1-0.7,15.6-2.5,19.8-10.5c9.3-17.9,1.8-34.8-11.8-43.9
			c-2.9-2-6.3-3.1-9.8-3.5c-2-0.2-4.1-0.3-6.1-0.5c-3.2-0.4-5.1-2.4-5.4-5.5c-0.3-2.9,1.2-5.3,4.2-6.3c1.4-0.5,2.8-0.8,4.2-1.1
			c1.3-0.2,2.2-0.8,2.9-1.8c2.8-4.1,5.5-8.2,8.3-12.3c0.5-0.7,0.3-1-0.3-1.4c-3.9-1.9-7.4-4.5-11.4-6.3c-1.4-0.6-2,0-2.7,1
			c-7.8,10.3-14.3,21.4-18.5,33.7c-3.4,10-6.3,20.1-4.5,30.8C119.8,469.4,128.9,477,146.7,478.8z M116.4,84.5
			c-4,0.2-7.7,0.5-11.2,2.1c-2.9,1.3-4.6,3.4-5.1,6.5c-0.6,3.7-0.8,7.5-0.7,11.2c0.5,16,6,30.3,15.3,43.2c3.1,4.2,3.1,4.2,6.4,0.4
			c0.2-0.2,0.3-0.4,0.5-0.6c10.9-12.2,23.4-22.6,36.9-31.8c3.2-2.2,3.4-2.8,1.5-6.2c-2.3-4.1-5.5-7.3-9.1-10.3
			C140.8,90.5,129.6,84.9,116.4,84.5z M244.2,484.4c5.5,0.3,10.6-1.3,15.8-2.6c7.8-1.9,9.5-9.7,6.7-15.6
			c-8.1-17.2-33.3-22.3-47.4-9.6c-3.3,2.9-4.6,6.5-3.7,10.8c0.2,0.8,0.3,1.7,0.4,2.5c0.3,5.8,3.2,9.4,8.7,11.3
			C231,483.4,237.5,484.2,244.2,484.4z M219.8,492.8c1,7.6,9,16.2,20.2,16.4c10.8,0.2,20.3-9,21.2-15.3
			C247.2,498.2,233.4,497.4,219.8,492.8z M181.7,526.4c0.1-1.9-0.3-3.7-0.8-5.5c-1.4-5.1-4.3-9.4-6.8-14c-3.2-5.8-6.8-11.3-8.3-17.9
			c-0.4-1.5-1.3-1.6-2.6-1.1c-8.2,3.5-16.9,3.7-25.6,2.7c-1.3-0.1-1.9,0.2-2.1,1.5c-0.5,2.6-0.6,5.2-0.2,7.9
			c1.4,9.7,5.7,18.3,11.2,26.3c5.5,8.2,13.1,12.7,22.9,13.5c4.3,0.3,7.4-1.2,9.8-4.7C180.9,532.4,181.8,529.5,181.7,526.4z"/>
		<path class="st1" d="M130.3,574.1c0.6-1.8,0.4-3.5-0.2-5.2c-3.4-9.2-3.7-18.8-3.1-28.4c0.5-6.5,1.1-12.9,2.1-20
			c1.8,3.4,3.4,6.3,4.9,9.2c1.2,2.4,3.4,4.3,4.1,7c-0.8,0.1-1.2-0.3-1.6-1c-1.8-2.7-3.5-5.4-5.3-8.1c-0.3-0.4-0.4-1-1.1-0.9
			c-0.6,0.1-0.7,0.7-0.8,1.2c-0.5,6.1-1.4,12.2-1.5,18.2c-0.1,7.9,0.9,15.7,3.6,23.3c0.9,2.5,1.8,3.2,4.3,3.2
			c57.9-0.1,115.9-0.1,173.8,0c12.8,0,25.6,0,38.4,0c1.6,0,2.9-0.1,3.1-2.1c0.7-7.7,1.3-15.4,1-23.2c0-0.6,0.3-1.3-0.4-1.6
			c-0.8-0.3-0.9,0.5-1.3,1c-3.3,4.8-7.3,8.9-11.9,12.5c-8,6.3-17.1,9.5-27.2,10.2c-6.1,0.5-12-0.9-17.7-3.2
			c-6.7-2.6-12.3-6.7-15.4-13.4c-2.9-6.3-4.4-12.9-3.1-19.8c0.2-0.9,0.1-1.7-0.4-2.5c-3.4-5.4-5.6-11.2-6.7-17.5
			c-0.3-1.8-1.2-1.6-2.2-0.5c-2.1,2.1-4.5,3.8-7.1,5.3c-13.5,7.8-26.7,6.3-39.6-1.3c-4.1-2.4-7-6.2-9.5-10.2
			c-0.7-1.1-1.7-2.2-2.6-0.5c-2.7,5.1-6.8,8.9-11.1,12.5c-0.9,0.7-1,1.5-0.8,2.7c1,7.1,0,14.2-3.9,20.1
			c-5.6,8.7-13.7,13.5-24.6,11.8c-10.8-1.6-20.3-5.6-27.6-14c-0.6-0.7-1.3-1.4-1-2.5c2.3,2.1,4.5,4.4,6.9,6.4
			c7.1,5.9,15.5,8.7,24.5,9.1c12.1,0.6,22-8.3,24.3-21.2c0.6-3.6,0.7-7.1,0-10.7c-0.3-1.2-0.1-2.1,1-2.8c5.3-3.3,8.9-8.1,12-13.4
			c1.4-2.3,1.6-2.4,2.9,0c4.9,9.2,12.5,14.7,22.6,16.8c12.7,2.7,23.8-0.5,33.1-9.6c1-0.9,1.8-2.1,3.2-2.7c0.8,1.6,0.5,3.4,0.8,5
			c0.9,5.2,2.6,10.1,5.4,14.5c1.3,2.1,1.8,4.1,1.6,6.5c-0.4,4.6-0.2,9.2,1.3,13.7c3.3,10.4,11.1,16,21.1,18.4
			c19.3,4.7,34.9-2.2,47.7-16.6c2.4-2.8,4.3-6,5.8-9.3c0.3-0.6,0.3-1.5,1.5-1.9c-0.1,8.4,0.2,16.7-0.7,25c-0.4,3.4-1.5,6.9-0.4,10.4
			c-43.3,0-86.5,0-129.8,0c-29.5,0-59,0-88.6,0C132.9,574.2,131.6,574.1,130.3,574.1z"/>
		<path class="st2" d="M364,573.5c1.8-12.7,2.5-25.5,1.6-38.3c-0.2-2.5,0.7-4.1,3-5.1c2.1-0.9,3.7-2.7,6.2-3.5
			c-0.3,5.8-0.5,11.3-1,16.8c-0.7,8.8-1.6,17.6-2.4,26.5c-0.1,1.2,0,2.4,0,3.6C369,574.3,366.5,574,364,573.5z"/>
		<path class="st2" d="M228.7,333.5c-6.9,1.6-8.5,6.7-3.6,12c3.8,4.1,7.8,7.9,10.5,12.8c0.4,0.6,1,1.2,0.9,2.2
			c-10.4-0.5-20.5,1.1-30.6,3.3c-13.3,2.9-25.4,8.5-36.4,16.2c-4,2.8-7.6,2.6-11.4,0.6c-8.7-4.5-17.2-9.4-24.8-15.6
			c-9.1-7.4-17.6-15.4-24.2-25.2c-5.7-8.3-9-17.8-12.6-27c-6.9-17.6-8-36-7.1-54.6c0.7-14.4,2.8-28.7,7.2-42.5
			c11.6-36.4,33.6-65.2,64.6-87.2c17.4-12.4,36.5-21.2,56.9-27.2c14.3-4.2,28.9-6.6,43.8-7.7c11.6-0.9,23.2-0.8,34.7,0.1
			c27,2.3,53.5,7.3,78.6,17.8c25.7,10.8,49.1,25.1,68.7,45.3c18.1,18.7,30.2,41,38.4,65.7c3.4,10.2,6.5,20.4,8.1,31
			c1.2,8,2.2,15.9,2.7,24c0.5,7.6,1.3,15.1,0.9,22.7c-0.9,16.7-2.2,33.5-8.2,49.3c-7.6,20.1-18.3,38.4-36,51.5
			c-18.9,14-40,22.8-63.3,26.5c-9.5,1.5-19.1,2.1-28.8,1.7c-2.9-0.1-4.7-1.3-6-3.9c-3.1-6.3-6.3-12.5-10.3-18.2
			c-11.1-16.2-26.5-26.8-44-34.8c-11.8-5.4-24.2-8.7-37.8-10.4c4.1-2.2,7.1-4.7,10.9-6c3.9,1.7,8.2,2.1,12.3,2.9
			c7.9,1.5,15.9,1.9,23.8,0.6c7.4-1.2,14.2-4.2,19.2-9.8c9-9.9,12.1-21.9,9.9-35c-2.8-16.1-12-27.9-26.3-35.6
			c-10.6-5.7-22-8.2-34.1-8.1c-8,0.1-15.7,1.6-23,5c-13.3,6.2-22.1,16.5-25.8,30.8c-1.8,7-2.1,14.1,0.4,21.1
			C227.6,329.6,228.1,331.5,228.7,333.5z M193.9,282.9c12.8,0.1,25.8-6.5,26.4-24c0.5-14.1-10.1-25.9-24.2-26.4
			c-14.8-0.5-26.1,9.2-27.3,24.8C167.7,271.8,178.3,282.2,193.9,282.9z M385.1,328.7c9.5,0.1,17.6-5.1,21.6-13.7
			c2.3-4.9,2.9-10.1,2.3-15.5c-1.3-12.9-16.1-24.4-28.8-22.3c-10.1,1.7-16.2,8-19.1,17.7C355.9,311.9,367.7,328.6,385.1,328.7z"/>
		<path class="st3" d="M296.3,482.5c0.1,0.1,0,0.2,0,0.3c-2.3,1.4-2.4,3.9-3.1,6.1c-1.5,5.3-0.3,10.4,1.1,15.5
			c0.4,1.6,0.1,2.6-1,3.6c-2.1,2-4.1,4.1-6.2,6.1c-2.1,2-3,1.7-3.8-1c-2.7-9.2-2.6-18.5-0.6-27.9c1.7-7.9,4.9-15,10.6-20.8
			c1.4-1.5,1.9-3.2,2.2-5c0.5-2.7-1.6-5.4-4.1-5.7c0,0,0,0,0,0c-1.1-1.7-3.3-2.3-5.4-1.2c-2.2,1.2-4.4,2.5-5.9,4.8
			c-1.3,2-2.4,1.9-3.6-0.1c-2.4-3.8-5.4-7.2-8.7-10.2c-10.5-9.6-23-11.7-36.5-10.1c-6.9,0.8-13.2,3.6-18.9,7.6
			c-1.7,1.2-2.8,0.8-3.9-0.6c-1.2-1.4-2.2-2.8-3.5-4c-3.2-2.9-8.2-1.9-10.5,1.8c-2.4,3.8-0.8,7,1.2,10.2c1.6,2.6,3,5.3,3.8,8.3
			c1.6,6,2.5,12.1,1.6,18.3c-1.3,9-4.3,17.3-10.3,24.3c-1.6,1.9-3,1.6-4-0.7c-0.5-1.3-1.2-2.4-1.9-3.6c-3-5.1-5.7-10.4-7.2-16.2
			c-0.4-1.7-0.7-3.4,0.2-5c3.3-5.9,5-12.3,6.5-18.9c1.7-7.6,0.5-14.8-2.2-21.7c-4.3-11-11.3-19.9-22-25.6c-1.8-1-2.3-2.1-0.9-3.9
			c3.5-4.4,6.8-9,11.2-12.8c10.2-8.7,21.9-14.3,34.5-18.1c10.4-3.1,21.1-4.1,31.9-4.3c3.2-0.1,6.3,0.6,9.4,0.6
			c6.7,0,13.4,1,19.9,2.3c13.6,2.8,26.6,7.6,38.5,15c9,5.6,17.3,12.1,23.6,20.7c5.8,7.8,10.5,16.2,13.9,25.4
			c2.1,5.5,4.3,10.9,4.6,16.9c0.2,2.9-1.2,4.5-4.1,4.7c-3,0.2-6.1,0.8-9.2,0.6c-4.1-0.3-8.2,0.1-12.2,1c-6.3,1.4-12.5,3-16.8,8.2
			c-2,2.4-4.3,4.8-4.8,8.2c0,0,0,0,0,0C297,477.1,296.5,479.7,296.3,482.5z M210.3,431.2c0.2-0.2,0.3-0.3,0.5-0.5
			c0.9-0.1,1.5-0.8,1.9-1.5c2.1-3.3,2.6-7,1.8-10.8c-1.4-6.9-7.1-11.6-15.5-11.4c-9.5,0.1-15.2,10.9-13.7,17.4
			c2.3,10,12.8,13.7,21.1,10.2c1.4-0.6,3-1,3.4-2.8C210,431.5,210.1,431.4,210.3,431.2z M296.6,450.1c7.7,0.9,15.2-5.8,15.1-13.6
			c0-9.1-5.6-15.3-14.4-15.7c-7.6-0.3-14.9,6.9-15,14.9C282.3,443.2,288.7,450.9,296.6,450.1z"/>
		<path class="st4" d="M228.7,333.5c-0.6-1.9-1.2-3.9-1.8-5.8c-2.5-7-2.3-14-0.4-21.1c3.7-14.3,12.5-24.6,25.8-30.8
			c7.2-3.4,14.9-4.9,23-5c12.1-0.1,23.5,2.4,34.1,8.1c14.3,7.7,23.4,19.5,26.3,35.6c2.3,13.1-0.8,25.1-9.9,35
			c-5.1,5.6-11.8,8.6-19.2,9.8c-7.9,1.3-15.9,0.9-23.8-0.6c-4.1-0.8-8.4-1.3-12.3-2.9c1.4-1.5,3.4-1.7,5.2-2.4
			c4-1.7,5.7-4.7,4.5-8.2c-1.1-3.3-4.7-4.9-8.7-3.4c-5.4,2-10.5,4.5-15.3,7.5c-0.9,0.5-1.8,1-2.6,1.5c-4-2.1-8-4.1-12-6.2
			c-2.6-2.3-4.4-5.1-6.7-7.6C233,335.2,231.2,333.8,228.7,333.5z M298.8,298.4c0-3.4-1.2-6.4-3.3-9c-3.8-4.6-8.7-6.4-14.6-5.4
			c-5.3,0.9-8.9,3.9-10.7,9.1c-1.3,3.9-0.7,7.8,1,11.4c0.7,1.6,0.5,2.5-0.7,3.7c-5.9,5.9-12.6,10.3-21,11.9
			c-3.7,0.7-5.8,3.2-6.1,6.6c-0.4,5.5,3.2,8.6,9.2,8c9.3-1,17-5.6,24.4-11c1.6-1.2,2.2-1.4,3.5,0.5c4.4,6.6,9.2,12.9,15.8,17.6
			c2.2,1.5,4.6,2.7,7.3,2.8c3.8,0.2,6.7-2.5,7.1-6.2c0.4-3.7-1.5-6.2-4.4-8c-6.5-4.1-10.8-10-14.1-16.8c-0.7-1.4-0.8-2.2,0.7-3.3
			C296.7,307.3,298.7,303.3,298.8,298.4z"/>
		<path class="st2" d="M553.5,164.2c0,1.4-1.1,0.6-1.9,0.4c-5-1.2-10-1.9-15.2-1.8c-21.2,0.4-38.4,8.8-51.5,25.5
			c-2,2.5-2.5,2.5-4-0.4c-11.1-21.1-25.8-39-44.4-53.8c-2.6-2.1-2.7-2.6-0.7-5.1c9.6-11.6,22.1-17.9,36.9-19.8
			c12-1.6,24.1-1.6,35.4,2.6c23.8,8.6,40.3,24.4,45.1,50.3C553.3,162.6,553.4,163.2,553.5,164.2z"/>
		<path class="st2" d="M106,73.8c3.2-7,6.9-13.2,12.5-17.8c20.5-17.2,44.1-23.4,69.9-15.9c20.6,5.9,36,19.3,45.3,39
			c2.4,5.1,2.1,5.4-3.3,6.5c-17.9,3.9-35.1,9.7-51.4,18.1c-0.1,0-0.1,0.1-0.2,0.1c-5.9,3-5.7,2.8-9.4-2.5
			c-9.3-13.4-22.3-21.8-37.7-26.5C123.3,72.2,115,71.5,106,73.8z"/>
		<path class="st2" d="M395.5,458c0.5,15.6-4.2,30.9-13.3,44.8c-5.4,8.2-13.4,13.3-22.4,16.8c-11.9,4.6-24,4.7-36,0.1
			c-16-6.1-21.9-26.6-11.7-39.9c4.3-5.6,10.4-7.4,17.1-7.6c6.8-0.2,13.6-0.3,20.3-2.1c4.7-1.3,9.1-3.2,12.7-6.7
			c5.8-5.6,7.6-12.3,6-20.1c-0.4-1.7,0.1-2,1.7-2c7.1,0,14.1-0.8,21.1-2.1c2.3-0.4,3.2,0.5,3.5,2.5
			C395.4,446.7,395.5,451.8,395.5,458z"/>
		<path class="st5" d="M535,175c5.6,0.1,9.4,0.4,13.1,1.3c4.8,1.2,6.4,3.2,6.1,8.2c-0.9,17.5-6.5,32.9-19.1,45.6
			c-8.5,8.5-18.4,14.6-30.1,17.5c-3.2,0.8-3.4,0.7-4.1-2.5c-2.2-10.7-5.5-21.1-9.2-31.4c-2.5-7-1.2-13.2,3.5-19.1
			C506.1,181.4,520.2,175.7,535,175z"/>
		<path class="st2" d="M146.7,478.8c-17.8-1.8-26.9-9.4-30.1-27.5c-1.9-10.7,1.1-20.8,4.5-30.8c4.2-12.3,10.7-23.3,18.5-33.7
			c0.7-0.9,1.3-1.6,2.7-1c4,1.8,7.5,4.3,11.4,6.3c0.7,0.3,0.8,0.7,0.3,1.4c-2.8,4.1-5.5,8.2-8.3,12.3c-0.7,1-1.6,1.6-2.9,1.8
			c-1.4,0.2-2.8,0.6-4.2,1.1c-2.9,1-4.5,3.4-4.2,6.3c0.3,3.1,2.2,5.1,5.4,5.5c2,0.2,4.1,0.3,6.1,0.5c3.5,0.4,6.8,1.5,9.8,3.5
			c13.5,9.1,21.1,26,11.8,43.9c-4.2,8-11.7,9.8-19.8,10.5C147.4,478.9,147,478.8,146.7,478.8z"/>
		<path class="st5" d="M116.4,84.5c13.2,0.4,24.4,6,34.5,14.4c3.5,3,6.8,6.2,9.1,10.3c1.9,3.4,1.7,4-1.5,6.2
			c-13.5,9.2-26,19.6-36.9,31.8c-0.2,0.2-0.3,0.4-0.5,0.6c-3.2,3.8-3.3,3.9-6.4-0.4c-9.3-12.9-14.8-27.2-15.3-43.2
			c-0.1-3.7,0.1-7.5,0.7-11.2c0.5-3.1,2.2-5.2,5.1-6.5C108.7,85.1,112.4,84.7,116.4,84.5z"/>
		<path class="st6" d="M244.2,484.4c-6.7-0.2-13.2-1-19.6-3.2c-5.5-1.9-8.4-5.5-8.7-11.3c0-0.8-0.2-1.7-0.4-2.5
			c-0.8-4.3,0.5-7.8,3.7-10.8c14.2-12.6,39.3-7.5,47.4,9.6c2.8,5.8,1,13.7-6.7,15.6C254.8,483.1,249.6,484.7,244.2,484.4z
			 M228.8,455.7c-3.8-0.1-6.7,2.6-6.8,6.4c-0.1,4.3,2.7,7.3,7,7.4c3.6,0,6.6-3.1,6.7-7C235.8,458.9,232.6,455.8,228.8,455.7z
			 M245.5,464.2c0,4.3,2.6,6.9,6.8,6.9c3.8,0,6.7-3,6.7-6.9c0-4-2.8-6.9-6.6-6.9C248.3,457.2,245.4,460.1,245.5,464.2z"/>
		<path class="st1" d="M299.9,475.7c0.5-3.4,2.8-5.7,4.8-8.2c4.3-5.2,10.5-6.9,16.8-8.2c4-0.9,8.1-1.3,12.2-1
			c3.1,0.2,6.1-0.4,9.2-0.6c2.9-0.2,4.3-1.8,4.1-4.7c-0.3-5.9-2.5-11.4-4.6-16.9c-3.4-9.1-8.2-17.5-13.9-25.4
			c-6.4-8.6-14.6-15.1-23.6-20.7c-11.9-7.4-24.8-12.2-38.5-15c-6.5-1.3-13.2-2.3-19.9-2.3c-3.2,0-6.2-0.6-9.4-0.6
			c-10.8,0.2-21.6,1.2-31.9,4.3c-12.6,3.8-24.3,9.5-34.5,18.1c-4.4,3.8-7.7,8.3-11.2,12.8c-1.4,1.8-0.9,2.9,0.9,3.9
			c10.6,5.7,17.7,14.6,22,25.6c2.7,6.9,3.9,14.1,2.2,21.7c-1.5,6.6-3.1,13-6.5,18.9c-0.9,1.5-0.6,3.3-0.2,5
			c1.5,5.8,4.2,11.1,7.2,16.2c0.7,1.2,1.3,2.4,1.9,3.6c1,2.4,2.4,2.6,4,0.7c6-7,9-15.2,10.3-24.3c0.9-6.3,0-12.3-1.6-18.3
			c-0.8-3-2.2-5.7-3.8-8.3c-1.9-3.2-3.5-6.4-1.2-10.2c2.3-3.7,7.3-4.8,10.5-1.8c1.3,1.2,2.4,2.6,3.5,4c1.2,1.4,2.2,1.8,3.9,0.6
			c5.7-4.1,12-6.8,18.9-7.6c13.5-1.6,26.1,0.5,36.5,10.1c3.3,3,6.3,6.4,8.7,10.2c1.3,2,2.3,2.1,3.6,0.1c1.5-2.3,3.7-3.5,5.9-4.8
			c2.1-1.2,4.3-0.6,5.4,1.2c-3.6-1.5-6.3,0-8.6,2.6c-0.7,0.8-1.5,1.6-2.2,2.5c-2.6,3-2.9,3-5-0.5c-8.3-13.7-20.5-20.4-36.5-20.6
			c-10.2-0.2-19.3,2.8-27.3,9.1c-1.5,1.2-2.3,1.2-3.3-0.6c-0.9-1.7-2-3.4-3.5-4.7c-2.5-2.1-5.6-2.4-8-0.6c-2.7,2-3.4,4.8-1.9,7.9
			c1.9,3.8,4.5,7.2,5.6,11.4c4.2,15.5,1.2,29.5-8.1,42.4c-0.4,0.6-1,1.2-1.6,1.7c-2.5,2.5-3.2,2.3-4.9-1c-1.4-2.8-3.1-5.5-4.6-8.2
			c-2.6-4.5-4.1-9.3-5.6-14.2c-0.4-1.3,0.1-2.2,0.6-3.4c5.8-11.6,9.7-23.7,5.7-36.7c-3.9-12.4-11.2-22.3-22.9-28.6
			c-3.2-1.7-3.4-2.3-1.3-5.3c6.8-9.8,15.5-17.3,26-23c13.9-7.6,28.8-11.8,44.6-12.6c21.8-1,43.1,1.5,63.2,10.7
			c16.1,7.4,30.6,16.8,40.4,32.2c7.3,11.5,13,23.6,15.7,37c1,4.9-0.3,6.6-5.3,7.6c-5.3,1-10.7,0.4-16.1,0.9
			c-11.3,1.1-20.6,5.2-26.3,15.6C300.3,475.4,300.1,475.6,299.9,475.7z"/>
		<path class="st6" d="M219.8,492.8c13.6,4.7,27.4,5.5,41.4,1.2c-0.9,6.2-10.4,15.5-21.2,15.3C228.8,509,220.7,500.4,219.8,492.8z"
			/>
		<path class="st1" d="M181.7,526.4c0.1,3.2-0.8,6-2.5,8.7c-2.4,3.5-5.5,5.1-9.8,4.7c-9.9-0.8-17.4-5.3-22.9-13.5
			c-5.5-8.1-9.7-16.6-11.2-26.3c-0.4-2.6-0.3-5.3,0.2-7.9c0.3-1.3,0.9-1.6,2.1-1.5c8.7,1,17.3,0.8,25.6-2.7c1.3-0.6,2.3-0.5,2.6,1.1
			c1.6,6.5,5.1,12.1,8.3,17.9c2.5,4.6,5.3,8.9,6.8,14C181.4,522.6,181.8,524.5,181.7,526.4z M146.2,492.1c-3.2,0-5.4,0-7.6,0
			c-0.9,0-1.9,0.1-2,1.2c-0.2,3.6-0.9,7.4,0.2,10.7c1.9,5.7,4.1,11.4,7.3,16.6c5.7,9.5,12.6,16.9,24.3,18.1c3.4,0.4,6.4-0.3,8.8-3
			c2.8-3.2,3.9-7,3.3-11.1c-0.7-4.8-2.6-9.3-5.2-13.4c-3.8-6.1-7.4-12.4-9.7-19.3c-0.8-2.5-2-2.6-3.9-2
			C156.3,491.6,150.9,492.5,146.2,492.1z"/>
		<path class="st1" d="M307.6,525.8c8.9,5.7,18.8,8.5,29.2,10c1.2,0.2,2.7,0.2,1.8,2.3c-4.6,11.1-22.2,20-33.9,17
			c-3.6-0.9-7.2-2-10.2-4.4c-5-3.9-6.8-9.6-5.1-15.7c1.8-6.4,6-11,11.2-14.8c0.5-0.4,1-0.8,1.6-0.2
			C304,521.9,306.4,523.3,307.6,525.8c-2.2-0.3-3.1-2.4-4.8-3.5c-1.3-0.8-2.1-1-3.1,0c-3.7,3.4-7.4,6.9-8.8,11.9
			c-1.5,5.1-1.2,9.7,2.7,14c5.7,6.3,17.9,7.9,26.4,4.4c5.6-2.3,10.1-5.9,14-10.3c1.1-1.3,3.1-2.5,2.5-4.4c-0.6-1.9-3-1-4.5-1.7
			c-0.1,0-0.2,0-0.3,0c-7.5-1.5-15-3.2-21.4-7.6C309.3,527.8,307.6,527.6,307.6,525.8z"/>
		<path class="st1" d="M291.6,453.8c2.5,0.3,4.6,3,4.1,5.7c-0.3,1.8-0.8,3.6-2.2,5c-5.7,5.8-8.9,12.9-10.6,20.8
			c-2,9.4-2.1,18.6,0.6,27.9c0.8,2.7,1.7,3,3.8,1c2.1-2,4.1-4.1,6.2-6.1c1.1-1,1.4-2,1-3.6c-1.4-5.1-2.6-10.3-1.1-15.5
			c0.6-2.2,0.7-4.7,3.1-6.1c0,0.3,0,0.5-0.1,0.8c-3.7,7-3.1,14.1-0.5,21.3c0.6,1.6,0.2,2.6-1,3.7c-2.5,2.3-4.9,4.8-7.4,7.1
			c-2.6,2.4-3.7,2.2-4.7-1.2c-4.8-15.9-2.9-30.9,5.3-45.3c1-1.8,2.5-3.2,3.9-4.7C295.5,460.5,295.4,457.6,291.6,453.8z"/>
		<path class="st2" d="M241.4,344.6c4,2.1,8,4.1,12,6.2c-0.3,0.2-0.5,0.5-0.8,0.6c-4.5,2.8-4.9,2.7-7.8-1.8
			C243.8,348,242.6,346.3,241.4,344.6z"/>
		<path class="st1" d="M296.3,482.5c0.1-2.8,0.7-5.5,3.6-6.8C298.7,478,297.5,480.3,296.3,482.5z"/>
		<path class="st3" d="M138.1,536.5c-0.3,1.1,0.4,1.7,1,2.5c7.3,8.4,16.8,12.4,27.6,14c10.9,1.6,19-3.1,24.6-11.8
			c3.9-5.9,4.9-13,3.9-20.1c-0.2-1.2-0.1-2,0.8-2.7c4.3-3.6,8.4-7.4,11.1-12.5c0.9-1.7,1.9-0.6,2.6,0.5c2.5,4,5.4,7.8,9.5,10.2
			c12.9,7.6,26.1,9.1,39.6,1.3c2.6-1.5,5-3.3,7.1-5.3c1.1-1,1.9-1.3,2.2,0.5c1.1,6.3,3.2,12.1,6.7,17.5c0.5,0.7,0.6,1.6,0.4,2.5
			c-1.3,7,0.2,13.5,3.1,19.8c3.1,6.7,8.7,10.8,15.4,13.4c5.7,2.2,11.5,3.6,17.7,3.2c10-0.7,19.2-3.9,27.2-10.2
			c4.6-3.6,8.6-7.7,11.9-12.5c0.3-0.5,0.5-1.3,1.3-1c0.7,0.3,0.4,1,0.4,1.6c0.3,7.8-0.3,15.5-1,23.2c-0.2,2-1.5,2.1-3.1,2.1
			c-12.8,0-25.6,0-38.4,0c-57.9,0-115.9,0-173.8,0c-2.5,0-3.4-0.6-4.3-3.2c-2.7-7.6-3.7-15.4-3.6-23.3c0.1-6.1,1-12.2,1.5-18.2
			c0-0.5,0.2-1.1,0.8-1.2c0.7-0.2,0.8,0.5,1.1,0.9c1.8,2.7,3.6,5.4,5.3,8.1C136.9,536.2,137.3,536.7,138.1,536.5
			C138.1,536.5,138.1,536.5,138.1,536.5z"/>
		<path class="st0" d="M193.9,282.9c-15.6-0.7-26.2-11.1-25.1-25.6c1.2-15.7,12.5-25.4,27.3-24.8c14.1,0.5,24.7,12.3,24.2,26.4
			C219.7,276.4,206.7,283,193.9,282.9z"/>
		<path class="st0" d="M385.1,328.7c-17.4-0.1-29.2-16.8-24.1-33.8c2.9-9.6,9-16,19.1-17.7c12.7-2.1,27.5,9.4,28.8,22.3
			c0.6,5.4,0,10.5-2.3,15.5C402.7,323.6,394.6,328.8,385.1,328.7z"/>
		<path class="st1" d="M296.6,450.1c-7.9,0.8-14.3-6.9-14.2-14.4c0.1-8,7.3-15.2,15-14.9c8.8,0.4,14.3,6.6,14.4,15.7
			C311.8,444.3,304.4,451,296.6,450.1z M310.7,436c0-8.2-5.7-14-13.7-14.1c-7.2,0-13.5,6.4-13.5,14c0,7.7,5.7,13.2,13.6,13.2
			C305,449.1,310.7,443.7,310.7,436z"/>
		<path class="st1" d="M209.8,431.7c-0.4,1.8-2,2.3-3.4,2.8c-8.3,3.5-18.7-0.2-21.1-10.2c-1.5-6.5,4.2-17.3,13.7-17.4
			c8.4-0.1,14.1,4.6,15.5,11.4c0.8,3.8,0.3,7.4-1.8,10.8c-0.5,0.7-1,1.4-1.9,1.5c-0.1-0.1-0.2-0.2-0.2-0.2c2.7-3.8,3.9-7.9,2.7-12.5
			c-1.7-6.5-7.7-10.5-14.8-9.9c-6.2,0.5-11.7,6.3-12.2,12.9c-0.5,6,4,12,10.3,13.5c4.8,1.1,9.1-0.1,13-3
			C209.7,431.5,209.7,431.6,209.8,431.7z"/>
		<path class="st1" d="M210.3,431.2c-0.2,0.2-0.3,0.3-0.5,0.5c-0.1-0.1-0.1-0.2-0.2-0.2c0.2-0.2,0.3-0.3,0.5-0.5
			C210.2,431,210.2,431.1,210.3,431.2z"/>
		<path class="st1" d="M210.8,430.7c-0.2,0.2-0.3,0.3-0.5,0.5c-0.1-0.1-0.2-0.2-0.2-0.2c0.2-0.2,0.3-0.3,0.5-0.5
			C210.7,430.5,210.7,430.6,210.8,430.7z"/>
		<path class="st0" d="M298.8,298.4c-0.1,4.8-2.1,8.9-6,11.8c-1.5,1.1-1.4,1.9-0.7,3.3c3.4,6.7,7.7,12.7,14.1,16.8
			c2.9,1.8,4.8,4.3,4.4,8c-0.4,3.8-3.3,6.4-7.1,6.2c-2.7-0.1-5.1-1.3-7.3-2.8c-6.6-4.6-11.4-10.9-15.8-17.6c-1.3-2-1.9-1.7-3.5-0.5
			c-7.3,5.4-15.1,10-24.4,11c-6,0.7-9.6-2.5-9.2-8c0.2-3.4,2.3-5.9,6.1-6.6c8.4-1.6,15.1-6,21-11.9c1.2-1.2,1.5-2.1,0.7-3.7
			c-1.7-3.7-2.3-7.5-1-11.4c1.7-5.2,5.3-8.2,10.7-9.1c5.9-1,10.8,0.8,14.6,5.4C297.7,292,298.8,295,298.8,298.4z"/>
		<path class="st0" d="M228.8,455.7c3.8,0.1,6.9,3.2,6.9,6.8c-0.1,3.9-3.1,7-6.7,7c-4.3-0.1-7.1-3.1-7-7.4
			C222.1,458.2,225,455.6,228.8,455.7z"/>
		<path class="st0" d="M245.5,464.2c0-4.1,2.9-7,6.9-7c3.8,0,6.6,2.9,6.6,6.9c0,3.9-2.9,6.9-6.7,6.9
			C248,471.1,245.5,468.5,245.5,464.2z"/>
		<path class="st3" d="M146.2,492.1c4.7,0.5,10.1-0.5,15.4-2.3c1.9-0.7,3.1-0.5,3.9,2c2.4,6.8,5.9,13.2,9.7,19.3
			c2.6,4.2,4.5,8.6,5.2,13.4c0.6,4.1-0.5,7.9-3.3,11.1c-2.3,2.7-5.4,3.3-8.8,3c-11.7-1.2-18.6-8.6-24.3-18.1
			c-3.2-5.3-5.3-10.9-7.3-16.6c-1.1-3.3-0.4-7.1-0.2-10.7c0.1-1.1,1.1-1.2,2-1.2C140.8,492.1,143,492.1,146.2,492.1z"/>
		<path class="st3" d="M307.6,525.8c0,1.8,1.6,2,2.7,2.7c6.5,4.4,13.9,6.1,21.4,7.6c0.1,0,0.2,0,0.3,0c1.5,0.7,3.9-0.2,4.5,1.7
			c0.6,1.9-1.4,3.1-2.5,4.4c-3.9,4.5-8.5,8-14,10.3c-8.4,3.5-20.6,1.9-26.4-4.4c-3.9-4.2-4.2-8.9-2.7-14c1.5-5.1,5.1-8.5,8.8-11.9
			c1-0.9,1.8-0.8,3.1,0C304.5,523.3,305.4,525.5,307.6,525.8C307.6,525.8,307.6,525.8,307.6,525.8z"/>
		<path class="st0" d="M310.7,436c0,7.7-5.7,13.2-13.6,13.2c-7.9,0-13.6-5.6-13.6-13.2c0-7.5,6.3-14,13.5-14
			C305,421.9,310.7,427.8,310.7,436z"/>
		<path class="st0" d="M210.6,430.4c-0.2,0.2-0.3,0.3-0.5,0.5c-0.2,0.2-0.3,0.3-0.5,0.5c-3.9,2.9-8.2,4.1-13,3
			c-6.3-1.5-10.7-7.5-10.3-13.5c0.5-6.6,6-12.4,12.2-12.9c7.1-0.6,13.1,3.4,14.8,9.9C214.5,422.5,213.3,426.7,210.6,430.4z"/>
	</g>
</g>
<g>
	<g>
		<path class="st7" d="M364,573.5c-0.8,1.4-1.3,3.4-3.5,3c-2.7-0.5-6.3,1.8-8-2.3c-1.1-3.5,0-6.9,0.4-10.4c0.9-8.3,0.6-16.6,0.7-25
			c-1.2,0.4-1.2,1.2-1.5,1.9c-1.5,3.3-3.4,6.5-5.8,9.3c-12.8,14.5-28.3,21.4-47.7,16.6c-10-2.4-17.8-8-21.1-18.4
			c-1.4-4.5-1.7-9-1.3-13.7c0.2-2.4-0.3-4.5-1.6-6.5c-2.8-4.4-4.5-9.3-5.4-14.5c-0.3-1.6,0-3.4-0.8-5c-1.4,0.6-2.2,1.8-3.2,2.7
			c-9.3,9.1-20.4,12.3-33.1,9.6c-10.1-2.1-17.7-7.6-22.6-16.8c-1.3-2.4-1.5-2.3-2.9,0c-3.1,5.3-6.7,10.1-12,13.4
			c-1.1,0.7-1.3,1.5-1,2.8c0.7,3.5,0.6,7.1,0,10.7c-2.3,12.9-12.1,21.8-24.3,21.2c-9-0.4-17.4-3.2-24.5-9.1c-2.4-2-4.6-4.2-6.9-6.4
			c0,0,0,0,0,0c-0.7-2.7-2.9-4.6-4.1-6.9c-1.5-2.9-3.1-5.7-4.9-9.2c-1,7.1-1.6,13.5-2.1,20c-0.7,9.7-0.3,19.2,3.1,28.4
			c0.6,1.7,0.8,3.5,0.2,5.2c-1.8,4-5.4,2.3-8.3,2.4c-2.2,0.1-2.9-2.2-3.5-3.9c-3.4-10-4.1-20.4-3.8-30.8c0.5-17,2.5-33.8,6.4-50.4
			c0.4-1.9,0.8-3.8,1.6-5.5c0.7-1.5,0.2-2.1-0.9-2.9c-10-7.6-14.9-18.2-17.1-30.2c-2.2-12.6,0.7-24.7,4.8-36.6
			c4.4-12.8,11-24.6,19.3-35.3c1.3-1.7,1.3-2.5-0.4-3.9c-8.9-7.4-18.1-14.6-25.2-23.9c-9.9-13-16.2-27.8-21-43.2
			c-6-19-6.8-38.6-5-58.3c1.3-15,4.1-29.7,8.8-44c5.2-15.8,13.3-30.3,22.6-44c1.3-1.8,1.1-2.8-0.3-4.4c-17-20-24.1-43-20.2-69.1
			c2.8-18.5,11-34.3,25.6-46.4c10.2-8.5,22.1-13.4,34.9-16.3c32.3-7.2,59.6,1.9,82.3,25.6c7.6,7.9,13.1,17.2,16.6,27.6
			c0.5,1.6,1.2,2.1,2.8,1.9c43.1-4.3,84.9,1.3,125.4,16.5c16.3,6.1,31.6,14.6,46.2,24c1.4,0.9,2.1,0.9,3.2-0.5
			c12.7-15.8,29.3-24.1,49.5-25.7c14.8-1.2,29.5-0.4,43.2,5.6c27.5,12,44.6,32.5,48.2,62.9c2.1,17.7,0.9,35.3-6.8,51.6
			c-10.7,22.5-28.5,37-52.7,43.4c-2.6,0.7-3.4,1.6-2.9,4.2c1.7,9.3,2.3,18.6,2.5,28c0.2,6.2,0,12.5-0.7,18.7
			c-2.1,20-5.7,39.5-14.8,57.9c-16.3,33-43.2,52.8-77.2,64.2c-1.9,0.6-3.9,1.4-5.8,1.9c-1.5,0.4-1.7,1.2-1.4,2.6
			c1.6,8.3,2,16.8,1.2,25.2c-1.1,12.1-2.7,24.1-8.4,35.1c-2.6,5.1-5.5,10-8.2,15c-2.7,5-3.5,10.5-4,16c-1.1,13.4-2.1,26.7-3.2,40.1
			c-0.1,1-0.2,2-0.4,3.1c-0.5,3.3-1.7,4.3-5,4.3c-2.8,0-5.8,0.6-6.9-3.1c0-1.2-0.1-2.4,0-3.6c0.8-8.8,1.7-17.6,2.4-26.5
			c0.4-5.5,0.6-11,1-16.8c-2.6,0.9-4.2,2.6-6.2,3.5c-2.2,1-3.1,2.6-3,5.1C366.5,548,365.8,560.8,364,573.5z M307.6,525.8
			L307.6,525.8c-1.3-2.5-3.7-3.9-5.5-5.9c-0.5-0.6-1.1-0.1-1.6,0.2c-5.1,3.9-9.4,8.4-11.2,14.8c-1.7,6.1,0.1,11.8,5.1,15.7
			c3,2.4,6.5,3.5,10.2,4.4c11.7,2.9,29.3-6,33.9-17c0.9-2.1-0.6-2.1-1.8-2.3C326.5,534.2,316.5,531.5,307.6,525.8z M291.6,453.8
			c3.8,3.9,3.9,6.7,0.2,10.7c-1.4,1.5-2.8,3-3.9,4.7c-8.2,14.3-10.1,29.4-5.3,45.3c1,3.3,2.1,3.6,4.7,1.2c2.5-2.3,4.8-4.8,7.4-7.1
			c1.2-1.1,1.6-2.1,1-3.7c-2.6-7.1-3.2-14.3,0.5-21.3c0.1-0.2,0-0.5,0.1-0.8c0.1-0.1,0.1-0.2,0-0.3c1.2-2.3,2.4-4.5,3.6-6.8
			c0,0,0,0,0,0c0.2-0.2,0.4-0.3,0.6-0.5c5.7-10.3,15-14.5,26.3-15.6c5.4-0.5,10.7,0.1,16.1-0.9c5-0.9,6.3-2.6,5.3-7.6
			c-2.7-13.4-8.4-25.5-15.7-37c-9.8-15.4-24.3-24.8-40.4-32.2c-20.1-9.2-41.4-11.7-63.2-10.7c-15.8,0.7-30.7,4.9-44.6,12.6
			c-10.4,5.7-19.2,13.2-26,23c-2,3-1.9,3.6,1.3,5.3c11.7,6.3,19,16.2,22.9,28.6c4,13,0.2,25.1-5.7,36.7c-0.6,1.1-1,2.1-0.6,3.4
			c1.5,4.9,3,9.8,5.6,14.2c1.6,2.7,3.2,5.4,4.6,8.2c1.6,3.3,2.3,3.5,4.9,1c0.5-0.5,1.1-1.1,1.6-1.7c9.3-12.9,12.3-26.9,8.1-42.4
			c-1.1-4.2-3.8-7.6-5.6-11.4c-1.5-3.2-0.8-6,1.9-7.9c2.4-1.8,5.5-1.5,8,0.6c1.5,1.3,2.6,3,3.5,4.7c0.9,1.8,1.8,1.8,3.3,0.6
			c8-6.3,17.1-9.2,27.3-9.1c16,0.2,28.2,7,36.5,20.6c2.1,3.5,2.5,3.5,5,0.5c0.7-0.8,1.5-1.7,2.2-2.5
			C285.3,453.7,288,452.3,291.6,453.8L291.6,453.8z M253.4,350.8c0.9-0.5,1.8-1,2.6-1.5c4.8-3.1,9.9-5.6,15.3-7.5
			c4-1.5,7.6,0.1,8.7,3.4c1.2,3.5-0.5,6.5-4.5,8.2c-1.8,0.8-3.8,0.9-5.2,2.4c-3.8,1.3-6.8,3.8-10.9,6c13.7,1.8,26.1,5,37.8,10.4
			c17.5,8,32.9,18.6,44,34.8c4,5.8,7.2,12,10.3,18.2c1.3,2.6,3.1,3.8,6,3.9c9.7,0.5,19.3-0.2,28.8-1.7c23.2-3.7,44.4-12.5,63.3-26.5
			c17.7-13.1,28.4-31.4,36-51.5c6-15.8,7.3-32.5,8.2-49.3c0.4-7.6-0.3-15.1-0.9-22.7c-0.6-8-1.6-16-2.7-24
			c-1.6-10.6-4.7-20.8-8.1-31c-8.1-24.6-20.2-46.9-38.4-65.7c-19.5-20.2-43-34.5-68.7-45.3c-25.1-10.6-51.6-15.6-78.6-17.8
			c-11.6-1-23.1-1-34.7-0.1c-14.9,1.1-29.5,3.4-43.8,7.7c-20.4,6-39.5,14.8-56.9,27.2c-31,22.1-52.9,50.8-64.6,87.2
			c-4.4,13.8-6.5,28.1-7.2,42.5c-0.9,18.6,0.2,37,7.1,54.6c3.7,9.3,7,18.7,12.6,27c6.6,9.8,15.2,17.7,24.2,25.2
			c7.6,6.3,16.1,11.2,24.8,15.6c3.8,2,7.4,2.1,11.4-0.6c11.1-7.7,23.2-13.3,36.4-16.2c10.1-2.2,20.2-3.9,30.6-3.3
			c0.1-1-0.5-1.6-0.9-2.2c-2.8-4.9-6.8-8.7-10.5-12.8c-4.9-5.2-3.3-10.4,3.6-12c2.5,0.3,4.3,1.7,6,3.5c2.3,2.5,4.2,5.4,6.7,7.6
			c1.1,1.7,2.3,3.3,3.4,5.1c2.8,4.5,3.3,4.6,7.8,1.8C252.9,351.3,253.1,351,253.4,350.8z M553.5,164.2c-0.1-1-0.2-1.6-0.3-2.2
			c-4.9-25.9-21.4-41.6-45.1-50.3c-11.3-4.1-23.4-4.2-35.4-2.6c-14.8,2-27.3,8.2-36.9,19.8c-2.1,2.5-2,3,0.7,5.1
			c18.6,14.8,33.4,32.8,44.4,53.8c1.5,2.8,2,2.9,4,0.4c13.2-16.6,30.4-25,51.5-25.5c5.2-0.1,10.2,0.5,15.2,1.8
			C552.4,164.8,553.5,165.5,553.5,164.2z M106,73.8c9-2.3,17.3-1.6,25.5,0.9c15.5,4.7,28.4,13.1,37.7,26.5c3.7,5.4,3.5,5.5,9.4,2.5
			c0.1,0,0.1-0.1,0.2-0.1c16.3-8.4,33.5-14.2,51.4-18.1c5.4-1.2,5.7-1.5,3.3-6.5c-9.3-19.7-24.7-33-45.3-39
			c-25.8-7.5-49.4-1.3-69.9,15.9C112.9,60.7,109.1,66.8,106,73.8z M395.5,458c0-6.2-0.2-11.3-1-16.4c-0.3-2-1.2-2.9-3.5-2.5
			c-7,1.3-14,2.1-21.1,2.1c-1.6,0-2,0.3-1.7,2c1.7,7.7-0.2,14.5-6,20.1c-3.6,3.5-8,5.4-12.7,6.7c-6.6,1.8-13.5,1.9-20.3,2.1
			c-6.7,0.2-12.8,2-17.1,7.6c-10.2,13.4-4.3,33.8,11.7,39.9c11.9,4.5,24.1,4.5,36-0.1c8.9-3.5,17-8.5,22.4-16.8
			C391.3,488.9,396,473.7,395.5,458z M535,175c-14.8,0.7-28.9,6.4-39.6,19.6c-4.7,5.9-6,12.1-3.5,19.1c3.7,10.3,6.9,20.7,9.2,31.4
			c0.7,3.2,0.9,3.3,4.1,2.5c11.7-2.9,21.5-9,30.1-17.5c12.6-12.6,18.2-28.1,19.1-45.6c0.2-5-1.3-7-6.1-8.2
			C544.4,175.4,540.6,175.2,535,175z M146.7,478.8c0.3,0,0.7,0,1,0c8.1-0.7,15.6-2.5,19.8-10.5c9.3-17.9,1.8-34.8-11.8-43.9
			c-2.9-2-6.3-3.1-9.8-3.5c-2-0.2-4.1-0.3-6.1-0.5c-3.2-0.4-5.1-2.4-5.4-5.5c-0.3-2.9,1.2-5.3,4.2-6.3c1.4-0.5,2.8-0.8,4.2-1.1
			c1.3-0.2,2.2-0.8,2.9-1.8c2.8-4.1,5.5-8.2,8.3-12.3c0.5-0.7,0.3-1-0.3-1.4c-3.9-1.9-7.4-4.5-11.4-6.3c-1.4-0.6-2,0-2.7,1
			c-7.8,10.3-14.3,21.4-18.5,33.7c-3.4,10-6.3,20.1-4.5,30.8C119.8,469.4,128.9,477,146.7,478.8z M116.4,84.5
			c-4,0.2-7.7,0.5-11.2,2.1c-2.9,1.3-4.6,3.4-5.1,6.5c-0.6,3.7-0.8,7.5-0.7,11.2c0.5,16,6,30.3,15.3,43.2c3.1,4.2,3.1,4.2,6.4,0.4
			c0.2-0.2,0.3-0.4,0.5-0.6c10.9-12.2,23.4-22.6,36.9-31.8c3.2-2.2,3.4-2.8,1.5-6.2c-2.3-4.1-5.5-7.3-9.1-10.3
			C140.8,90.5,129.6,84.9,116.4,84.5z M244.2,484.4c5.5,0.3,10.6-1.3,15.8-2.6c7.8-1.9,9.5-9.7,6.7-15.6
			c-8.1-17.2-33.3-22.3-47.4-9.6c-3.3,2.9-4.6,6.5-3.7,10.8c0.2,0.8,0.3,1.7,0.4,2.5c0.3,5.8,3.2,9.4,8.7,11.3
			C231,483.4,237.5,484.2,244.2,484.4z M219.8,492.8c1,7.6,9,16.2,20.2,16.4c10.8,0.2,20.3-9,21.2-15.3
			C247.2,498.2,233.4,497.4,219.8,492.8z M181.7,526.4c0.1-1.9-0.3-3.7-0.8-5.5c-1.4-5.1-4.3-9.4-6.8-14c-3.2-5.8-6.8-11.3-8.3-17.9
			c-0.4-1.5-1.3-1.6-2.6-1.1c-8.2,3.5-16.9,3.7-25.6,2.7c-1.3-0.1-1.9,0.2-2.1,1.5c-0.5,2.6-0.6,5.2-0.2,7.9
			c1.4,9.7,5.7,18.3,11.2,26.3c5.5,8.2,13.1,12.7,22.9,13.5c4.3,0.3,7.4-1.2,9.8-4.7C180.9,532.4,181.8,529.5,181.7,526.4z"/>
		<path class="st8" d="M130.3,574.1c0.6-1.8,0.4-3.5-0.2-5.2c-3.4-9.2-3.7-18.8-3.1-28.4c0.5-6.5,1.1-12.9,2.1-20
			c1.8,3.4,3.4,6.3,4.9,9.2c1.2,2.4,3.4,4.3,4.1,7c-0.8,0.1-1.2-0.3-1.6-1c-1.8-2.7-3.5-5.4-5.3-8.1c-0.3-0.4-0.4-1-1.1-0.9
			c-0.6,0.1-0.7,0.7-0.8,1.2c-0.5,6.1-1.4,12.2-1.5,18.2c-0.1,7.9,0.9,15.7,3.6,23.3c0.9,2.5,1.8,3.2,4.3,3.2
			c57.9-0.1,115.9-0.1,173.8,0c12.8,0,25.6,0,38.4,0c1.6,0,2.9-0.1,3.1-2.1c0.7-7.7,1.3-15.4,1-23.2c0-0.6,0.3-1.3-0.4-1.6
			c-0.8-0.3-0.9,0.5-1.3,1c-3.3,4.8-7.3,8.9-11.9,12.5c-8,6.3-17.1,9.5-27.2,10.2c-6.1,0.5-12-0.9-17.7-3.2
			c-6.7-2.6-12.3-6.7-15.4-13.4c-2.9-6.3-4.4-12.9-3.1-19.8c0.2-0.9,0.1-1.7-0.4-2.5c-3.4-5.4-5.6-11.2-6.7-17.5
			c-0.3-1.8-1.2-1.6-2.2-0.5c-2.1,2.1-4.5,3.8-7.1,5.3c-13.5,7.8-26.7,6.3-39.6-1.3c-4.1-2.4-7-6.2-9.5-10.2
			c-0.7-1.1-1.7-2.2-2.6-0.5c-2.7,5.1-6.8,8.9-11.1,12.5c-0.9,0.7-1,1.5-0.8,2.7c1,7.1,0,14.2-3.9,20.1
			c-5.6,8.7-13.7,13.5-24.6,11.8c-10.8-1.6-20.3-5.6-27.6-14c-0.6-0.7-1.3-1.4-1-2.5c2.3,2.1,4.5,4.4,6.9,6.4
			c7.1,5.9,15.5,8.7,24.5,9.1c12.1,0.6,22-8.3,24.3-21.2c0.6-3.6,0.7-7.1,0-10.7c-0.3-1.2-0.1-2.1,1-2.8c5.3-3.3,8.9-8.1,12-13.4
			c1.4-2.3,1.6-2.4,2.9,0c4.9,9.2,12.5,14.7,22.6,16.8c12.7,2.7,23.8-0.5,33.1-9.6c1-0.9,1.8-2.1,3.2-2.7c0.8,1.6,0.5,3.4,0.8,5
			c0.9,5.2,2.6,10.1,5.4,14.5c1.3,2.1,1.8,4.1,1.6,6.5c-0.4,4.6-0.2,9.2,1.3,13.7c3.3,10.4,11.1,16,21.1,18.4
			c19.3,4.7,34.9-2.2,47.7-16.6c2.4-2.8,4.3-6,5.8-9.3c0.3-0.6,0.3-1.5,1.5-1.9c-0.1,8.4,0.2,16.7-0.7,25c-0.4,3.4-1.5,6.9-0.4,10.4
			c-43.3,0-86.5,0-129.8,0c-29.5,0-59,0-88.6,0C132.9,574.2,131.6,574.1,130.3,574.1z"/>
		<path class="st9" d="M364,573.5c1.8-12.7,2.5-25.5,1.6-38.3c-0.2-2.5,0.7-4.1,3-5.1c2.1-0.9,3.7-2.7,6.2-3.5
			c-0.3,5.8-0.5,11.3-1,16.8c-0.7,8.8-1.6,17.6-2.4,26.5c-0.1,1.2,0,2.4,0,3.6C369,574.3,366.5,574,364,573.5z"/>
		<path class="st9" d="M228.7,333.5c-6.9,1.6-8.5,6.7-3.6,12c3.8,4.1,7.8,7.9,10.5,12.8c0.4,0.6,1,1.2,0.9,2.2
			c-10.4-0.5-20.5,1.1-30.6,3.3c-13.3,2.9-25.4,8.5-36.4,16.2c-4,2.8-7.6,2.6-11.4,0.6c-8.7-4.5-17.2-9.4-24.8-15.6
			c-9.1-7.4-17.6-15.4-24.2-25.2c-5.7-8.3-9-17.8-12.6-27c-6.9-17.6-8-36-7.1-54.6c0.7-14.4,2.8-28.7,7.2-42.5
			c11.6-36.4,33.6-65.2,64.6-87.2c17.4-12.4,36.5-21.2,56.9-27.2c14.3-4.2,28.9-6.6,43.8-7.7c11.6-0.9,23.2-0.8,34.7,0.1
			c27,2.3,53.5,7.3,78.6,17.8c25.7,10.8,49.1,25.1,68.7,45.3c18.1,18.7,30.2,41,38.4,65.7c3.4,10.2,6.5,20.4,8.1,31
			c1.2,8,2.2,15.9,2.7,24c0.5,7.6,1.3,15.1,0.9,22.7c-0.9,16.7-2.2,33.5-8.2,49.3c-7.6,20.1-18.3,38.4-36,51.5
			c-18.9,14-40,22.8-63.3,26.5c-9.5,1.5-19.1,2.1-28.8,1.7c-2.9-0.1-4.7-1.3-6-3.9c-3.1-6.3-6.3-12.5-10.3-18.2
			c-11.1-16.2-26.5-26.8-44-34.8c-11.8-5.4-24.2-8.7-37.8-10.4c4.1-2.2,7.1-4.7,10.9-6c3.9,1.7,8.2,2.1,12.3,2.9
			c7.9,1.5,15.9,1.9,23.8,0.6c7.4-1.2,14.2-4.2,19.2-9.8c9-9.9,12.1-21.9,9.9-35c-2.8-16.1-12-27.9-26.3-35.6
			c-10.6-5.7-22-8.2-34.1-8.1c-8,0.1-15.7,1.6-23,5c-13.3,6.2-22.1,16.5-25.8,30.8c-1.8,7-2.1,14.1,0.4,21.1
			C227.6,329.6,228.1,331.5,228.7,333.5z M193.9,282.9c12.8,0.1,25.8-6.5,26.4-24c0.5-14.1-10.1-25.9-24.2-26.4
			c-14.8-0.5-26.1,9.2-27.3,24.8C167.7,271.8,178.3,282.2,193.9,282.9z M385.1,328.7c9.5,0.1,17.6-5.1,21.6-13.7
			c2.3-4.9,2.9-10.1,2.3-15.5c-1.3-12.9-16.1-24.4-28.8-22.3c-10.1,1.7-16.2,8-19.1,17.7C355.9,311.9,367.7,328.6,385.1,328.7z"/>
		<path class="st10" d="M296.3,482.5c0.1,0.1,0,0.2,0,0.3c-2.3,1.4-2.4,3.9-3.1,6.1c-1.5,5.3-0.3,10.4,1.1,15.5
			c0.4,1.6,0.1,2.6-1,3.6c-2.1,2-4.1,4.1-6.2,6.1c-2.1,2-3,1.7-3.8-1c-2.7-9.2-2.6-18.5-0.6-27.9c1.7-7.9,4.9-15,10.6-20.8
			c1.4-1.5,1.9-3.2,2.2-5c0.5-2.7-1.6-5.4-4.1-5.7c0,0,0,0,0,0c-1.1-1.7-3.3-2.3-5.4-1.2c-2.2,1.2-4.4,2.5-5.9,4.8
			c-1.3,2-2.4,1.9-3.6-0.1c-2.4-3.8-5.4-7.2-8.7-10.2c-10.5-9.6-23-11.7-36.5-10.1c-6.9,0.8-13.2,3.6-18.9,7.6
			c-1.7,1.2-2.8,0.8-3.9-0.6c-1.2-1.4-2.2-2.8-3.5-4c-3.2-2.9-8.2-1.9-10.5,1.8c-2.4,3.8-0.8,7,1.2,10.2c1.6,2.6,3,5.3,3.8,8.3
			c1.6,6,2.5,12.1,1.6,18.3c-1.3,9-4.3,17.3-10.3,24.3c-1.6,1.9-3,1.6-4-0.7c-0.5-1.3-1.2-2.4-1.9-3.6c-3-5.1-5.7-10.4-7.2-16.2
			c-0.4-1.7-0.7-3.4,0.2-5c3.3-5.9,5-12.3,6.5-18.9c1.7-7.6,0.5-14.8-2.2-21.7c-4.3-11-11.3-19.9-22-25.6c-1.8-1-2.3-2.1-0.9-3.9
			c3.5-4.4,6.8-9,11.2-12.8c10.2-8.7,21.9-14.3,34.5-18.1c10.4-3.1,21.1-4.1,31.9-4.3c3.2-0.1,6.3,0.6,9.4,0.6
			c6.7,0,13.4,1,19.9,2.3c13.6,2.8,26.6,7.6,38.5,15c9,5.6,17.3,12.1,23.6,20.7c5.8,7.8,10.5,16.2,13.9,25.4
			c2.1,5.5,4.3,10.9,4.6,16.9c0.2,2.9-1.2,4.5-4.1,4.7c-3,0.2-6.1,0.8-9.2,0.6c-4.1-0.3-8.2,0.1-12.2,1c-6.3,1.4-12.5,3-16.8,8.2
			c-2,2.4-4.3,4.8-4.8,8.2c0,0,0,0,0,0C297,477.1,296.5,479.7,296.3,482.5z M210.3,431.2c0.2-0.2,0.3-0.3,0.5-0.5
			c0.9-0.1,1.5-0.8,1.9-1.5c2.1-3.3,2.6-7,1.8-10.8c-1.4-6.9-7.1-11.6-15.5-11.4c-9.5,0.1-15.2,10.9-13.7,17.4
			c2.3,10,12.8,13.7,21.1,10.2c1.4-0.6,3-1,3.4-2.8C210,431.5,210.1,431.4,210.3,431.2z M296.6,450.1c7.7,0.9,15.2-5.8,15.1-13.6
			c0-9.1-5.6-15.3-14.4-15.7c-7.6-0.3-14.9,6.9-15,14.9C282.3,443.2,288.7,450.9,296.6,450.1z"/>
		<path class="st11" d="M228.7,333.5c-0.6-1.9-1.2-3.9-1.8-5.8c-2.5-7-2.3-14-0.4-21.1c3.7-14.3,12.5-24.6,25.8-30.8
			c7.2-3.4,14.9-4.9,23-5c12.1-0.1,23.5,2.4,34.1,8.1c14.3,7.7,23.4,19.5,26.3,35.6c2.3,13.1-0.8,25.1-9.9,35
			c-5.1,5.6-11.8,8.6-19.2,9.8c-7.9,1.3-15.9,0.9-23.8-0.6c-4.1-0.8-8.4-1.3-12.3-2.9c1.4-1.5,3.4-1.7,5.2-2.4
			c4-1.7,5.7-4.7,4.5-8.2c-1.1-3.3-4.7-4.9-8.7-3.4c-5.4,2-10.5,4.5-15.3,7.5c-0.9,0.5-1.8,1-2.6,1.5c-4-2.1-8-4.1-12-6.2
			c-2.6-2.3-4.4-5.1-6.7-7.6C233,335.2,231.2,333.8,228.7,333.5z M298.8,298.4c0-3.4-1.2-6.4-3.3-9c-3.8-4.6-8.7-6.4-14.6-5.4
			c-5.3,0.9-8.9,3.9-10.7,9.1c-1.3,3.9-0.7,7.8,1,11.4c0.7,1.6,0.5,2.5-0.7,3.7c-5.9,5.9-12.6,10.3-21,11.9
			c-3.7,0.7-5.8,3.2-6.1,6.6c-0.4,5.5,3.2,8.6,9.2,8c9.3-1,17-5.6,24.4-11c1.6-1.2,2.2-1.4,3.5,0.5c4.4,6.6,9.2,12.9,15.8,17.6
			c2.2,1.5,4.6,2.7,7.3,2.8c3.8,0.2,6.7-2.5,7.1-6.2c0.4-3.7-1.5-6.2-4.4-8c-6.5-4.1-10.8-10-14.1-16.8c-0.7-1.4-0.8-2.2,0.7-3.3
			C296.7,307.3,298.7,303.3,298.8,298.4z"/>
		<path class="st9" d="M553.5,164.2c0,1.4-1.1,0.6-1.9,0.4c-5-1.2-10-1.9-15.2-1.8c-21.2,0.4-38.4,8.8-51.5,25.5
			c-2,2.5-2.5,2.5-4-0.4c-11.1-21.1-25.8-39-44.4-53.8c-2.6-2.1-2.7-2.6-0.7-5.1c9.6-11.6,22.1-17.9,36.9-19.8
			c12-1.6,24.1-1.6,35.4,2.6c23.8,8.6,40.3,24.4,45.1,50.3C553.3,162.6,553.4,163.2,553.5,164.2z"/>
		<path class="st9" d="M106,73.8c3.2-7,6.9-13.2,12.5-17.8c20.5-17.2,44.1-23.4,69.9-15.9c20.6,5.9,36,19.3,45.3,39
			c2.4,5.1,2.1,5.4-3.3,6.5c-17.9,3.9-35.1,9.7-51.4,18.1c-0.1,0-0.1,0.1-0.2,0.1c-5.9,3-5.7,2.8-9.4-2.5
			c-9.3-13.4-22.3-21.8-37.7-26.5C123.3,72.2,115,71.5,106,73.8z"/>
		<path class="st9" d="M395.5,458c0.5,15.6-4.2,30.9-13.3,44.8c-5.4,8.2-13.4,13.3-22.4,16.8c-11.9,4.6-24,4.7-36,0.1
			c-16-6.1-21.9-26.6-11.7-39.9c4.3-5.6,10.4-7.4,17.1-7.6c6.8-0.2,13.6-0.3,20.3-2.1c4.7-1.3,9.1-3.2,12.7-6.7
			c5.8-5.6,7.6-12.3,6-20.1c-0.4-1.7,0.1-2,1.7-2c7.1,0,14.1-0.8,21.1-2.1c2.3-0.4,3.2,0.5,3.5,2.5
			C395.4,446.7,395.5,451.8,395.5,458z"/>
		<path class="st12" d="M535,175c5.6,0.1,9.4,0.4,13.1,1.3c4.8,1.2,6.4,3.2,6.1,8.2c-0.9,17.5-6.5,32.9-19.1,45.6
			c-8.5,8.5-18.4,14.6-30.1,17.5c-3.2,0.8-3.4,0.7-4.1-2.5c-2.2-10.7-5.5-21.1-9.2-31.4c-2.5-7-1.2-13.2,3.5-19.1
			C506.1,181.4,520.2,175.7,535,175z"/>
		<path class="st9" d="M146.7,478.8c-17.8-1.8-26.9-9.4-30.1-27.5c-1.9-10.7,1.1-20.8,4.5-30.8c4.2-12.3,10.7-23.3,18.5-33.7
			c0.7-0.9,1.3-1.6,2.7-1c4,1.8,7.5,4.3,11.4,6.3c0.7,0.3,0.8,0.7,0.3,1.4c-2.8,4.1-5.5,8.2-8.3,12.3c-0.7,1-1.6,1.6-2.9,1.8
			c-1.4,0.2-2.8,0.6-4.2,1.1c-2.9,1-4.5,3.4-4.2,6.3c0.3,3.1,2.2,5.1,5.4,5.5c2,0.2,4.1,0.3,6.1,0.5c3.5,0.4,6.8,1.5,9.8,3.5
			c13.5,9.1,21.1,26,11.8,43.9c-4.2,8-11.7,9.8-19.8,10.5C147.4,478.9,147,478.8,146.7,478.8z"/>
		<path class="st12" d="M116.4,84.5c13.2,0.4,24.4,6,34.5,14.4c3.5,3,6.8,6.2,9.1,10.3c1.9,3.4,1.7,4-1.5,6.2
			c-13.5,9.2-26,19.6-36.9,31.8c-0.2,0.2-0.3,0.4-0.5,0.6c-3.2,3.8-3.3,3.9-6.4-0.4c-9.3-12.9-14.8-27.2-15.3-43.2
			c-0.1-3.7,0.1-7.5,0.7-11.2c0.5-3.1,2.2-5.2,5.1-6.5C108.7,85.1,112.4,84.7,116.4,84.5z"/>
		<path class="st13" d="M244.2,484.4c-6.7-0.2-13.2-1-19.6-3.2c-5.5-1.9-8.4-5.5-8.7-11.3c0-0.8-0.2-1.7-0.4-2.5
			c-0.8-4.3,0.5-7.8,3.7-10.8c14.2-12.6,39.3-7.5,47.4,9.6c2.8,5.8,1,13.7-6.7,15.6C254.8,483.1,249.6,484.7,244.2,484.4z
			 M228.8,455.7c-3.8-0.1-6.7,2.6-6.8,6.4c-0.1,4.3,2.7,7.3,7,7.4c3.6,0,6.6-3.1,6.7-7C235.8,458.9,232.6,455.8,228.8,455.7z
			 M245.5,464.2c0,4.3,2.6,6.9,6.8,6.9c3.8,0,6.7-3,6.7-6.9c0-4-2.8-6.9-6.6-6.9C248.3,457.2,245.4,460.1,245.5,464.2z"/>
		<path class="st8" d="M299.9,475.7c0.5-3.4,2.8-5.7,4.8-8.2c4.3-5.2,10.5-6.9,16.8-8.2c4-0.9,8.1-1.3,12.2-1
			c3.1,0.2,6.1-0.4,9.2-0.6c2.9-0.2,4.3-1.8,4.1-4.7c-0.3-5.9-2.5-11.4-4.6-16.9c-3.4-9.1-8.2-17.5-13.9-25.4
			c-6.4-8.6-14.6-15.1-23.6-20.7c-11.9-7.4-24.8-12.2-38.5-15c-6.5-1.3-13.2-2.3-19.9-2.3c-3.2,0-6.2-0.6-9.4-0.6
			c-10.8,0.2-21.6,1.2-31.9,4.3c-12.6,3.8-24.3,9.5-34.5,18.1c-4.4,3.8-7.7,8.3-11.2,12.8c-1.4,1.8-0.9,2.9,0.9,3.9
			c10.6,5.7,17.7,14.6,22,25.6c2.7,6.9,3.9,14.1,2.2,21.7c-1.5,6.6-3.1,13-6.5,18.9c-0.9,1.5-0.6,3.3-0.2,5
			c1.5,5.8,4.2,11.1,7.2,16.2c0.7,1.2,1.3,2.4,1.9,3.6c1,2.4,2.4,2.6,4,0.7c6-7,9-15.2,10.3-24.3c0.9-6.3,0-12.3-1.6-18.3
			c-0.8-3-2.2-5.7-3.8-8.3c-1.9-3.2-3.5-6.4-1.2-10.2c2.3-3.7,7.3-4.8,10.5-1.8c1.3,1.2,2.4,2.6,3.5,4c1.2,1.4,2.2,1.8,3.9,0.6
			c5.7-4.1,12-6.8,18.9-7.6c13.5-1.6,26.1,0.5,36.5,10.1c3.3,3,6.3,6.4,8.7,10.2c1.3,2,2.3,2.1,3.6,0.1c1.5-2.3,3.7-3.5,5.9-4.8
			c2.1-1.2,4.3-0.6,5.4,1.2c-3.6-1.5-6.3,0-8.6,2.6c-0.7,0.8-1.5,1.6-2.2,2.5c-2.6,3-2.9,3-5-0.5c-8.3-13.7-20.5-20.4-36.5-20.6
			c-10.2-0.2-19.3,2.8-27.3,9.1c-1.5,1.2-2.3,1.2-3.3-0.6c-0.9-1.7-2-3.4-3.5-4.7c-2.5-2.1-5.6-2.4-8-0.6c-2.7,2-3.4,4.8-1.9,7.9
			c1.9,3.8,4.5,7.2,5.6,11.4c4.2,15.5,1.2,29.5-8.1,42.4c-0.4,0.6-1,1.2-1.6,1.7c-2.5,2.5-3.2,2.3-4.9-1c-1.4-2.8-3.1-5.5-4.6-8.2
			c-2.6-4.5-4.1-9.3-5.6-14.2c-0.4-1.3,0.1-2.2,0.6-3.4c5.8-11.6,9.7-23.7,5.7-36.7c-3.9-12.4-11.2-22.3-22.9-28.6
			c-3.2-1.7-3.4-2.3-1.3-5.3c6.8-9.8,15.5-17.3,26-23c13.9-7.6,28.8-11.8,44.6-12.6c21.8-1,43.1,1.5,63.2,10.7
			c16.1,7.4,30.6,16.8,40.4,32.2c7.3,11.5,13,23.6,15.7,37c1,4.9-0.3,6.6-5.3,7.6c-5.3,1-10.7,0.4-16.1,0.9
			c-11.3,1.1-20.6,5.2-26.3,15.6C300.3,475.4,300.1,475.6,299.9,475.7z"/>
		<path class="st13" d="M219.8,492.8c13.6,4.7,27.4,5.5,41.4,1.2c-0.9,6.2-10.4,15.5-21.2,15.3C228.8,509,220.7,500.4,219.8,492.8z"
			/>
		<path class="st8" d="M181.7,526.4c0.1,3.2-0.8,6-2.5,8.7c-2.4,3.5-5.5,5.1-9.8,4.7c-9.9-0.8-17.4-5.3-22.9-13.5
			c-5.5-8.1-9.7-16.6-11.2-26.3c-0.4-2.6-0.3-5.3,0.2-7.9c0.3-1.3,0.9-1.6,2.1-1.5c8.7,1,17.3,0.8,25.6-2.7c1.3-0.6,2.3-0.5,2.6,1.1
			c1.6,6.5,5.1,12.1,8.3,17.9c2.5,4.6,5.3,8.9,6.8,14C181.4,522.6,181.8,524.5,181.7,526.4z M146.2,492.1c-3.2,0-5.4,0-7.6,0
			c-0.9,0-1.9,0.1-2,1.2c-0.2,3.6-0.9,7.4,0.2,10.7c1.9,5.7,4.1,11.4,7.3,16.6c5.7,9.5,12.6,16.9,24.3,18.1c3.4,0.4,6.4-0.3,8.8-3
			c2.8-3.2,3.9-7,3.3-11.1c-0.7-4.8-2.6-9.3-5.2-13.4c-3.8-6.1-7.4-12.4-9.7-19.3c-0.8-2.5-2-2.6-3.9-2
			C156.3,491.6,150.9,492.5,146.2,492.1z"/>
		<path class="st8" d="M307.6,525.8c8.9,5.7,18.8,8.5,29.2,10c1.2,0.2,2.7,0.2,1.8,2.3c-4.6,11.1-22.2,20-33.9,17
			c-3.6-0.9-7.2-2-10.2-4.4c-5-3.9-6.8-9.6-5.1-15.7c1.8-6.4,6-11,11.2-14.8c0.5-0.4,1-0.8,1.6-0.2
			C304,521.9,306.4,523.3,307.6,525.8c-2.2-0.3-3.1-2.4-4.8-3.5c-1.3-0.8-2.1-1-3.1,0c-3.7,3.4-7.4,6.9-8.8,11.9
			c-1.5,5.1-1.2,9.7,2.7,14c5.7,6.3,17.9,7.9,26.4,4.4c5.6-2.3,10.1-5.9,14-10.3c1.1-1.3,3.1-2.5,2.5-4.4c-0.6-1.9-3-1-4.5-1.7
			c-0.1,0-0.2,0-0.3,0c-7.5-1.5-15-3.2-21.4-7.6C309.3,527.8,307.6,527.6,307.6,525.8z"/>
		<path class="st8" d="M291.6,453.8c2.5,0.3,4.6,3,4.1,5.7c-0.3,1.8-0.8,3.6-2.2,5c-5.7,5.8-8.9,12.9-10.6,20.8
			c-2,9.4-2.1,18.6,0.6,27.9c0.8,2.7,1.7,3,3.8,1c2.1-2,4.1-4.1,6.2-6.1c1.1-1,1.4-2,1-3.6c-1.4-5.1-2.6-10.3-1.1-15.5
			c0.6-2.2,0.7-4.7,3.1-6.1c0,0.3,0,0.5-0.1,0.8c-3.7,7-3.1,14.1-0.5,21.3c0.6,1.6,0.2,2.6-1,3.7c-2.5,2.3-4.9,4.8-7.4,7.1
			c-2.6,2.4-3.7,2.2-4.7-1.2c-4.8-15.9-2.9-30.9,5.3-45.3c1-1.8,2.5-3.2,3.9-4.7C295.5,460.5,295.4,457.6,291.6,453.8z"/>
		<path class="st9" d="M241.4,344.6c4,2.1,8,4.1,12,6.2c-0.3,0.2-0.5,0.5-0.8,0.6c-4.5,2.8-4.9,2.7-7.8-1.8
			C243.8,348,242.6,346.3,241.4,344.6z"/>
		<path class="st8" d="M296.3,482.5c0.1-2.8,0.7-5.5,3.6-6.8C298.7,478,297.5,480.3,296.3,482.5z"/>
		<path class="st10" d="M138.1,536.5c-0.3,1.1,0.4,1.7,1,2.5c7.3,8.4,16.8,12.4,27.6,14c10.9,1.6,19-3.1,24.6-11.8
			c3.9-5.9,4.9-13,3.9-20.1c-0.2-1.2-0.1-2,0.8-2.7c4.3-3.6,8.4-7.4,11.1-12.5c0.9-1.7,1.9-0.6,2.6,0.5c2.5,4,5.4,7.8,9.5,10.2
			c12.9,7.6,26.1,9.1,39.6,1.3c2.6-1.5,5-3.3,7.1-5.3c1.1-1,1.9-1.3,2.2,0.5c1.1,6.3,3.2,12.1,6.7,17.5c0.5,0.7,0.6,1.6,0.4,2.5
			c-1.3,7,0.2,13.5,3.1,19.8c3.1,6.7,8.7,10.8,15.4,13.4c5.7,2.2,11.5,3.6,17.7,3.2c10-0.7,19.2-3.9,27.2-10.2
			c4.6-3.6,8.6-7.7,11.9-12.5c0.3-0.5,0.5-1.3,1.3-1c0.7,0.3,0.4,1,0.4,1.6c0.3,7.8-0.3,15.5-1,23.2c-0.2,2-1.5,2.1-3.1,2.1
			c-12.8,0-25.6,0-38.4,0c-57.9,0-115.9,0-173.8,0c-2.5,0-3.4-0.6-4.3-3.2c-2.7-7.6-3.7-15.4-3.6-23.3c0.1-6.1,1-12.2,1.5-18.2
			c0-0.5,0.2-1.1,0.8-1.2c0.7-0.2,0.8,0.5,1.1,0.9c1.8,2.7,3.6,5.4,5.3,8.1C136.9,536.2,137.3,536.7,138.1,536.5
			C138.1,536.5,138.1,536.5,138.1,536.5z"/>
		<path class="st7" d="M193.9,282.9c-15.6-0.7-26.2-11.1-25.1-25.6c1.2-15.7,12.5-25.4,27.3-24.8c14.1,0.5,24.7,12.3,24.2,26.4
			C219.7,276.4,206.7,283,193.9,282.9z"/>
		<path class="st7" d="M385.1,328.7c-17.4-0.1-29.2-16.8-24.1-33.8c2.9-9.6,9-16,19.1-17.7c12.7-2.1,27.5,9.4,28.8,22.3
			c0.6,5.4,0,10.5-2.3,15.5C402.7,323.6,394.6,328.8,385.1,328.7z"/>
		<path class="st8" d="M296.6,450.1c-7.9,0.8-14.3-6.9-14.2-14.4c0.1-8,7.3-15.2,15-14.9c8.8,0.4,14.3,6.6,14.4,15.7
			C311.8,444.3,304.4,451,296.6,450.1z M310.7,436c0-8.2-5.7-14-13.7-14.1c-7.2,0-13.5,6.4-13.5,14c0,7.7,5.7,13.2,13.6,13.2
			C305,449.1,310.7,443.7,310.7,436z"/>
		<path class="st8" d="M209.8,431.7c-0.4,1.8-2,2.3-3.4,2.8c-8.3,3.5-18.7-0.2-21.1-10.2c-1.5-6.5,4.2-17.3,13.7-17.4
			c8.4-0.1,14.1,4.6,15.5,11.4c0.8,3.8,0.3,7.4-1.8,10.8c-0.5,0.7-1,1.4-1.9,1.5c-0.1-0.1-0.2-0.2-0.2-0.2c2.7-3.8,3.9-7.9,2.7-12.5
			c-1.7-6.5-7.7-10.5-14.8-9.9c-6.2,0.5-11.7,6.3-12.2,12.9c-0.5,6,4,12,10.3,13.5c4.8,1.1,9.1-0.1,13-3
			C209.7,431.5,209.7,431.6,209.8,431.7z"/>
		<path class="st8" d="M210.3,431.2c-0.2,0.2-0.3,0.3-0.5,0.5c-0.1-0.1-0.1-0.2-0.2-0.2c0.2-0.2,0.3-0.3,0.5-0.5
			C210.2,431,210.2,431.1,210.3,431.2z"/>
		<path class="st8" d="M210.8,430.7c-0.2,0.2-0.3,0.3-0.5,0.5c-0.1-0.1-0.2-0.2-0.2-0.2c0.2-0.2,0.3-0.3,0.5-0.5
			C210.7,430.5,210.7,430.6,210.8,430.7z"/>
		<path class="st7" d="M298.8,298.4c-0.1,4.8-2.1,8.9-6,11.8c-1.5,1.1-1.4,1.9-0.7,3.3c3.4,6.7,7.7,12.7,14.1,16.8
			c2.9,1.8,4.8,4.3,4.4,8c-0.4,3.8-3.3,6.4-7.1,6.2c-2.7-0.1-5.1-1.3-7.3-2.8c-6.6-4.6-11.4-10.9-15.8-17.6c-1.3-2-1.9-1.7-3.5-0.5
			c-7.3,5.4-15.1,10-24.4,11c-6,0.7-9.6-2.5-9.2-8c0.2-3.4,2.3-5.9,6.1-6.6c8.4-1.6,15.1-6,21-11.9c1.2-1.2,1.5-2.1,0.7-3.7
			c-1.7-3.7-2.3-7.5-1-11.4c1.7-5.2,5.3-8.2,10.7-9.1c5.9-1,10.8,0.8,14.6,5.4C297.7,292,298.8,295,298.8,298.4z"/>
		<path class="st7" d="M228.8,455.7c3.8,0.1,6.9,3.2,6.9,6.8c-0.1,3.9-3.1,7-6.7,7c-4.3-0.1-7.1-3.1-7-7.4
			C222.1,458.2,225,455.6,228.8,455.7z"/>
		<path class="st7" d="M245.5,464.2c0-4.1,2.9-7,6.9-7c3.8,0,6.6,2.9,6.6,6.9c0,3.9-2.9,6.9-6.7,6.9
			C248,471.1,245.5,468.5,245.5,464.2z"/>
		<path class="st10" d="M146.2,492.1c4.7,0.5,10.1-0.5,15.4-2.3c1.9-0.7,3.1-0.5,3.9,2c2.4,6.8,5.9,13.2,9.7,19.3
			c2.6,4.2,4.5,8.6,5.2,13.4c0.6,4.1-0.5,7.9-3.3,11.1c-2.3,2.7-5.4,3.3-8.8,3c-11.7-1.2-18.6-8.6-24.3-18.1
			c-3.2-5.3-5.3-10.9-7.3-16.6c-1.1-3.3-0.4-7.1-0.2-10.7c0.1-1.1,1.1-1.2,2-1.2C140.8,492.1,143,492.1,146.2,492.1z"/>
		<path class="st10" d="M307.6,525.8c0,1.8,1.6,2,2.7,2.7c6.5,4.4,13.9,6.1,21.4,7.6c0.1,0,0.2,0,0.3,0c1.5,0.7,3.9-0.2,4.5,1.7
			c0.6,1.9-1.4,3.1-2.5,4.4c-3.9,4.5-8.5,8-14,10.3c-8.4,3.5-20.6,1.9-26.4-4.4c-3.9-4.2-4.2-8.9-2.7-14c1.5-5.1,5.1-8.5,8.8-11.9
			c1-0.9,1.8-0.8,3.1,0C304.5,523.3,305.4,525.5,307.6,525.8C307.6,525.8,307.6,525.8,307.6,525.8z"/>
		<path class="st7" d="M310.7,436c0,7.7-5.7,13.2-13.6,13.2c-7.9,0-13.6-5.6-13.6-13.2c0-7.5,6.3-14,13.5-14
			C305,421.9,310.7,427.8,310.7,436z"/>
		<path class="st7" d="M210.6,430.4c-0.2,0.2-0.3,0.3-0.5,0.5c-0.2,0.2-0.3,0.3-0.5,0.5c-3.9,2.9-8.2,4.1-13,3
			c-6.3-1.5-10.7-7.5-10.3-13.5c0.5-6.6,6-12.4,12.2-12.9c7.1-0.6,13.1,3.4,14.8,9.9C214.5,422.5,213.3,426.7,210.6,430.4z"/>
	</g>
</g>
</svg>
